# Blender v2.91.0 OBJ File: 'Stool.blend'
# www.blender.org
mtllib Table.mtl
o Table_lowpoly_Cube.012
v -0.570000 0.752500 0.300000
v -0.570000 0.767500 0.300000
v -0.570000 0.752500 -0.300000
v -0.570000 0.767500 -0.300000
v 0.570000 0.752500 0.300000
v 0.570000 0.767500 0.300000
v 0.570000 0.752500 -0.300000
v 0.570000 0.767500 -0.300000
v -0.540685 0.002500 -0.238553
v -0.540685 0.752500 -0.238553
v -0.540685 0.002500 -0.278553
v -0.540685 0.752500 -0.278553
v -0.500685 0.002500 -0.238553
v -0.500685 0.752500 -0.238553
v -0.500685 0.002500 -0.278553
v -0.500685 0.752500 -0.278553
v 0.500570 0.002500 -0.238553
v 0.500570 0.752500 -0.238553
v 0.500570 0.002500 -0.278553
v 0.500570 0.752500 -0.278553
v 0.540570 0.002500 -0.238553
v 0.540570 0.752500 -0.238553
v 0.540570 0.002500 -0.278553
v 0.540570 0.752500 -0.278553
v -0.540685 0.002500 0.277909
v -0.540685 0.752500 0.277909
v -0.540685 0.002500 0.237909
v -0.540685 0.752500 0.237909
v -0.500685 0.002500 0.277909
v -0.500685 0.752500 0.277909
v -0.500685 0.002500 0.237909
v -0.500685 0.752500 0.237909
v 0.500570 0.002500 0.277909
v 0.500570 0.752500 0.277909
v 0.500570 0.002500 0.237909
v 0.500570 0.752500 0.237909
v 0.540570 0.002500 0.277909
v 0.540570 0.752500 0.277909
v 0.540570 0.002500 0.237909
v 0.540570 0.752500 0.237909
v -0.533935 0.725952 0.237945
v -0.533935 0.752452 0.237945
v -0.533935 0.725952 -0.238590
v -0.533935 0.752452 -0.238590
v -0.507435 0.725952 0.237945
v -0.507435 0.752452 0.237945
v -0.507435 0.725952 -0.238590
v -0.507435 0.752452 -0.238590
v 0.507288 0.725952 0.237945
v 0.507288 0.752452 0.237945
v 0.507288 0.725952 -0.238590
v 0.507288 0.752452 -0.238590
v 0.533788 0.725952 0.237945
v 0.533788 0.752452 0.237945
v 0.533788 0.725952 -0.238590
v 0.533788 0.752452 -0.238590
v 0.502102 0.725952 0.272305
v 0.502102 0.752452 0.272305
v -0.500676 0.725952 0.272305
v -0.500676 0.752452 0.272305
v 0.502102 0.725952 0.245806
v 0.502102 0.752452 0.245806
v -0.500676 0.725952 0.245806
v -0.500676 0.752452 0.245806
v 0.502102 0.725952 -0.246092
v 0.502102 0.752452 -0.246092
v -0.500676 0.725952 -0.246091
v -0.500676 0.752452 -0.246091
v 0.502102 0.725952 -0.272591
v 0.502102 0.752452 -0.272591
v -0.500676 0.725952 -0.272591
v -0.500676 0.752452 -0.272591
v -0.530507 0.100599 0.237939
v -0.530507 0.137008 0.237939
v -0.530507 0.100599 -0.238584
v -0.530507 0.137008 -0.238584
v -0.510863 0.100599 0.237939
v -0.510863 0.137008 0.237939
v -0.510863 0.100599 -0.238584
v -0.510863 0.137008 -0.238584
v 0.511339 0.100599 0.237939
v 0.511339 0.137008 0.237939
v 0.511339 0.100599 -0.238584
v 0.511339 0.137008 -0.238584
v 0.530983 0.100599 0.237939
v 0.530983 0.137008 0.237939
v 0.530983 0.100599 -0.238584
v 0.530983 0.137008 -0.238584
v 0.511768 0.103101 0.006350
v 0.511768 0.134506 0.006350
v -0.511502 0.103101 0.006350
v -0.511502 0.134506 0.006350
v 0.511768 0.103101 -0.006994
v 0.511768 0.134506 -0.006994
v -0.511502 0.103101 -0.006994
v -0.511502 0.134506 -0.006994
vt 0.659510 0.526584
vt 0.651972 0.526584
vt 0.651972 0.828106
vt 0.659510 0.828106
vt 0.950222 0.004118
vt 0.942684 0.004118
vt 0.942684 0.577009
vt 0.950222 0.577009
vt 0.275451 0.585245
vt 0.267913 0.585245
vt 0.267913 0.886767
vt 0.275451 0.886767
vt 0.965997 0.004118
vt 0.958459 0.004118
vt 0.958459 0.577009
vt 0.965997 0.577009
vt 0.615398 0.577009
vt 0.615398 0.004118
vt 0.313876 0.004118
vt 0.313876 0.577009
vt 0.305640 0.577009
vt 0.305640 0.004118
vt 0.004118 0.004118
vt 0.004118 0.577009
vt 0.623634 0.526584
vt 0.623634 0.903486
vt 0.643736 0.903486
vt 0.643736 0.526584
vt 0.886008 0.389257
vt 0.886008 0.766158
vt 0.906109 0.766158
vt 0.906109 0.389257
vt 0.764671 0.516286
vt 0.764671 0.893188
vt 0.784772 0.893188
vt 0.784772 0.516286
vt 0.857670 0.389257
vt 0.857670 0.766158
vt 0.877771 0.766158
vt 0.877771 0.389257
vt 0.432899 0.585245
vt 0.412798 0.585245
vt 0.412798 0.605347
vt 0.432899 0.605347
vt 0.886008 0.004118
vt 0.886008 0.381020
vt 0.906109 0.381020
vt 0.906109 0.004118
vt 0.736333 0.516286
vt 0.736333 0.893188
vt 0.756434 0.893188
vt 0.756434 0.516286
vt 0.700010 0.516286
vt 0.700010 0.893188
vt 0.720111 0.893188
vt 0.720111 0.516286
vt 0.914346 0.004118
vt 0.914346 0.381020
vt 0.934447 0.381020
vt 0.934447 0.004118
vt 0.461237 0.585245
vt 0.441136 0.585245
vt 0.441136 0.605347
vt 0.461237 0.605347
vt 0.800994 0.004118
vt 0.800994 0.381020
vt 0.821095 0.381020
vt 0.821095 0.004118
vt 0.004118 0.585245
vt 0.004118 0.962147
vt 0.024220 0.962147
vt 0.024220 0.585245
vt 0.829332 0.389257
vt 0.829332 0.766158
vt 0.849433 0.766158
vt 0.849433 0.389257
vt 0.671672 0.516286
vt 0.671672 0.893188
vt 0.691773 0.893188
vt 0.691773 0.516286
vt 0.404561 0.585245
vt 0.384460 0.585245
vt 0.384460 0.605347
vt 0.404561 0.605347
vt 0.800994 0.389257
vt 0.800994 0.766158
vt 0.821095 0.766158
vt 0.821095 0.389257
vt 0.857670 0.004118
vt 0.857670 0.381020
vt 0.877771 0.381020
vt 0.877771 0.004118
vt 0.829332 0.004118
vt 0.829332 0.381020
vt 0.849433 0.381020
vt 0.849433 0.004118
vt 0.914346 0.389257
vt 0.914346 0.766158
vt 0.934447 0.766158
vt 0.934447 0.389257
vt 0.376223 0.585245
vt 0.356122 0.585245
vt 0.356122 0.605347
vt 0.376223 0.605347
vt 0.151908 0.585245
vt 0.138591 0.585245
vt 0.138591 0.824721
vt 0.151908 0.824721
vt 0.195016 0.585245
vt 0.181699 0.585245
vt 0.181699 0.824721
vt 0.195016 0.824721
vt 0.238123 0.585245
vt 0.224806 0.585245
vt 0.224806 0.824721
vt 0.238123 0.824721
vt 0.216569 0.585245
vt 0.203252 0.585245
vt 0.203252 0.824721
vt 0.216569 0.824721
vt 0.173462 0.585245
vt 0.160145 0.585245
vt 0.160145 0.824721
vt 0.173462 0.824721
vt 0.259677 0.585245
vt 0.246360 0.585245
vt 0.246360 0.824721
vt 0.259677 0.824721
vt 0.749650 0.004118
vt 0.736333 0.004118
vt 0.736333 0.508050
vt 0.749650 0.508050
vt 0.728096 0.004118
vt 0.714779 0.004118
vt 0.714779 0.508050
vt 0.728096 0.508050
vt 0.771203 0.004118
vt 0.757886 0.004118
vt 0.757886 0.508050
vt 0.771203 0.508050
vt 0.706542 0.004118
vt 0.693225 0.004118
vt 0.693225 0.508050
vt 0.706542 0.508050
vt 0.684989 0.004118
vt 0.671672 0.004118
vt 0.671672 0.508050
vt 0.684989 0.508050
vt 0.792757 0.004118
vt 0.779440 0.004118
vt 0.779440 0.508050
vt 0.792757 0.508050
vt 0.077287 0.585245
vt 0.058990 0.585245
vt 0.058990 0.824715
vt 0.077287 0.824715
vt 0.103821 0.585245
vt 0.085524 0.585245
vt 0.085524 0.824715
vt 0.103821 0.824715
vt 0.293560 0.585245
vt 0.283688 0.585245
vt 0.283688 0.824715
vt 0.293560 0.824715
vt 0.347885 0.585245
vt 0.338013 0.585245
vt 0.338013 0.824715
vt 0.347885 0.824715
vt 0.130355 0.585245
vt 0.112058 0.585245
vt 0.112058 0.824715
vt 0.130355 0.824715
vt 0.050754 0.585245
vt 0.032456 0.585245
vt 0.032456 0.824715
vt 0.050754 0.824715
vt 0.311668 0.585245
vt 0.301796 0.585245
vt 0.301796 0.824715
vt 0.311668 0.824715
vt 0.329777 0.585245
vt 0.319905 0.585245
vt 0.319905 0.824715
vt 0.329777 0.824715
vt 0.639416 0.004118
vt 0.623634 0.004118
vt 0.623634 0.518348
vt 0.639416 0.518348
vt 0.663435 0.004118
vt 0.647653 0.004118
vt 0.647653 0.518348
vt 0.663435 0.518348
vt 0.980939 0.004118
vt 0.974233 0.004118
vt 0.974233 0.518348
vt 0.980939 0.518348
vt 0.989176 0.518348
vt 0.995882 0.518348
vt 0.995882 0.004118
vt 0.989176 0.004118
vn -1.0000 0.0000 0.0000
vn 0.0000 0.0000 -1.0000
vn 1.0000 0.0000 0.0000
vn 0.0000 0.0000 1.0000
vn 0.0000 -1.0000 0.0000
vn 0.0000 1.0000 0.0000
usemtl Table
s off
f 1/1/1 2/2/1 4/3/1 3/4/1
f 3/5/2 4/6/2 8/7/2 7/8/2
f 7/9/3 8/10/3 6/11/3 5/12/3
f 5/13/4 6/14/4 2/15/4 1/16/4
f 3/17/5 7/18/5 5/19/5 1/20/5
f 8/21/6 4/22/6 2/23/6 6/24/6
f 9/25/1 10/26/1 12/27/1 11/28/1
f 11/29/2 12/30/2 16/31/2 15/32/2
f 15/33/3 16/34/3 14/35/3 13/36/3
f 13/37/4 14/38/4 10/39/4 9/40/4
f 11/41/5 15/42/5 13/43/5 9/44/5
f 17/45/1 18/46/1 20/47/1 19/48/1
f 19/49/2 20/50/2 24/51/2 23/52/2
f 23/53/3 24/54/3 22/55/3 21/56/3
f 21/57/4 22/58/4 18/59/4 17/60/4
f 19/61/5 23/62/5 21/63/5 17/64/5
f 25/65/1 26/66/1 28/67/1 27/68/1
f 27/69/2 28/70/2 32/71/2 31/72/2
f 31/73/3 32/74/3 30/75/3 29/76/3
f 29/77/4 30/78/4 26/79/4 25/80/4
f 27/81/5 31/82/5 29/83/5 25/84/5
f 33/85/1 34/86/1 36/87/1 35/88/1
f 35/89/2 36/90/2 40/91/2 39/92/2
f 39/93/3 40/94/3 38/95/3 37/96/3
f 37/97/4 38/98/4 34/99/4 33/100/4
f 35/101/5 39/102/5 37/103/5 33/104/5
f 41/105/1 42/106/1 44/107/1 43/108/1
f 47/109/3 48/110/3 46/111/3 45/112/3
f 43/113/5 47/114/5 45/115/5 41/116/5
f 49/117/1 50/118/1 52/119/1 51/120/1
f 55/121/3 56/122/3 54/123/3 53/124/3
f 51/125/5 55/126/5 53/127/5 49/128/5
f 57/129/4 58/130/4 60/131/4 59/132/4
f 63/133/2 64/134/2 62/135/2 61/136/2
f 59/137/5 63/138/5 61/139/5 57/140/5
f 65/141/4 66/142/4 68/143/4 67/144/4
f 71/145/2 72/146/2 70/147/2 69/148/2
f 67/149/5 71/150/5 69/151/5 65/152/5
f 73/153/1 74/154/1 76/155/1 75/156/1
f 79/157/3 80/158/3 78/159/3 77/160/3
f 75/161/5 79/162/5 77/163/5 73/164/5
f 80/165/6 76/166/6 74/167/6 78/168/6
f 81/169/1 82/170/1 84/171/1 83/172/1
f 87/173/3 88/174/3 86/175/3 85/176/3
f 83/177/5 87/178/5 85/179/5 81/180/5
f 88/181/6 84/182/6 82/183/6 86/184/6
f 89/185/4 90/186/4 92/187/4 91/188/4
f 95/189/2 96/190/2 94/191/2 93/192/2
f 91/193/5 95/194/5 93/195/5 89/196/5
f 96/197/6 92/198/6 90/199/6 94/200/6
